<?xml version="1.0" encoding="UTF-8"?>
<svg width="135px" height="107px" viewBox="0 0 135 107" version="1.1" xmlns="http://www.w3.org/2000/svg" xmlns:xlink="http://www.w3.org/1999/xlink">
    <title>auto-apply</title>
    <g id="NextStep-style-guide" stroke="none" stroke-width="1" fill="none" fill-rule="evenodd">
        <g id="NextStep-Landing-page-idea" transform="translate(-1082.000000, -1861.000000)">
            <g id="auto-apply" transform="translate(1082.000000, 1861.000000)">
                <g id="Group-13" transform="translate(28.000000, 0.000000)" fill="#ECF5FF">
                    <g id="Group-16">
                        <circle id="Oval" cx="53.5" cy="53.5" r="53.5"></circle>
                    </g>
                </g>
                <g id="web-design" transform="translate(-0.000000, 14.000000)" fill="#000000" fill-rule="nonzero">
                    <path d="M82.8383621,0.122126437 L4.35991379,0.122126437 C1.95316188,0.124928599 0.00280297488,2.07472235 0,4.48077685 L0,80.0307174 C0.00280297488,82.4367719 1.95316188,84.3865657 4.35991379,84.3893678 L82.8383621,84.3893678 C85.245114,84.3865657 87.1954729,82.4367719 87.1982759,80.0307174 L87.1982759,4.48077685 C87.1954729,2.07472235 85.245114,0.124928599 82.8383621,0.122126437 Z M4.35991379,3.02789338 L82.8383621,3.02789338 C83.6406265,3.02879415 84.2907656,3.67874487 84.2916667,4.48077685 L84.2916667,11.7451942 L2.9066092,11.7451942 L2.9066092,4.48077685 C2.90751022,3.67874487 3.55764934,3.02879415 4.35991379,3.02789338 Z M82.8383621,81.4836009 L4.35991379,81.4836009 C3.55764934,81.4827001 2.90751022,80.8327494 2.9066092,80.0307174 L2.9066092,14.6509612 L84.2916667,14.6509612 L84.2916667,80.0307174 C84.2907656,80.8327494 83.6406265,81.4827001 82.8383621,81.4836009 Z" id="Shape"></path>
                    <circle id="Oval" cx="19.0517241" cy="7.44971264" r="1.46551724"></circle>
                    <circle id="Oval" cx="13.1896552" cy="7.44971264" r="1.46551724"></circle>
                    <circle id="Oval" cx="7.32758621" cy="7.44971264" r="1.46551724"></circle>
                    <path d="M36.637931,23.5704023 L51.2931034,23.5704023 C52.1024863,23.5704023 52.7586207,22.9142679 52.7586207,22.1048851 C52.7586207,21.2955022 52.1024863,20.6393678 51.2931034,20.6393678 L36.637931,20.6393678 C35.8285482,20.6393678 35.1724138,21.2955022 35.1724138,22.1048851 C35.1724138,22.9142679 35.8285482,23.5704023 36.637931,23.5704023 Z" id="Path"></path>
                    <path d="M61.5517241,25.7686782 L26.3793103,25.7686782 C25.5699275,25.7686782 24.9137931,26.4248126 24.9137931,27.2341954 L24.9137931,33.0962644 C24.9137931,33.9056472 25.5699275,34.5617816 26.3793103,34.5617816 L61.5517241,34.5617816 C62.361107,34.5617816 63.0172414,33.9056472 63.0172414,33.0962644 L63.0172414,27.2341954 C63.0172414,26.4248126 62.361107,25.7686782 61.5517241,25.7686782 Z M60.0862069,31.6307471 L27.8448276,31.6307471 L27.8448276,28.6997126 L60.0862069,28.6997126 L60.0862069,31.6307471 Z" id="Shape"></path>
                    <path d="M61.5517241,37.4928161 L26.3793103,37.4928161 C25.5699275,37.4928161 24.9137931,38.1489505 24.9137931,38.9583333 L24.9137931,44.8204023 C24.9137931,45.6297851 25.5699275,46.2859195 26.3793103,46.2859195 L61.5517241,46.2859195 C62.361107,46.2859195 63.0172414,45.6297851 63.0172414,44.8204023 L63.0172414,38.9583333 C63.0172414,38.1489505 62.361107,37.4928161 61.5517241,37.4928161 Z M60.0862069,43.3548851 L27.8448276,43.3548851 L27.8448276,40.4238506 L60.0862069,40.4238506 L60.0862069,43.3548851 Z" id="Shape"></path>
                    <path d="M61.5517241,49.216954 L26.3793103,49.216954 C25.5699275,49.216954 24.9137931,49.8730884 24.9137931,50.6824713 L24.9137931,62.4066092 C24.9137931,63.215992 25.5699275,63.8721264 26.3793103,63.8721264 L61.5517241,63.8721264 C62.361107,63.8721264 63.0172414,63.215992 63.0172414,62.4066092 L63.0172414,50.6824713 C63.0172414,49.8730884 62.361107,49.216954 61.5517241,49.216954 Z M60.0862069,60.941092 L27.8448276,60.941092 L27.8448276,52.1479885 L60.0862069,52.1479885 L60.0862069,60.941092 Z" id="Shape"></path>
                    <path d="M46.8965517,66.8031609 L41.0344828,66.8031609 C38.6063343,66.8031609 36.637931,68.7715642 36.637931,71.1997126 C36.637931,73.6278611 38.6063343,75.5962644 41.0344828,75.5962644 L46.8965517,75.5962644 C49.3247002,75.5962644 51.2931034,73.6278611 51.2931034,71.1997126 C51.2931034,68.7715642 49.3247002,66.8031609 46.8965517,66.8031609 Z M46.8965517,72.6652299 L41.0344828,72.6652299 C40.2250999,72.6652299 39.5689655,72.0090955 39.5689655,71.1997126 C39.5689655,70.3903298 40.2250999,69.7341954 41.0344828,69.7341954 L46.8965517,69.7341954 C47.7059345,69.7341954 48.362069,70.3903298 48.362069,71.1997126 C48.362069,72.0090955 47.7059345,72.6652299 46.8965517,72.6652299 Z" id="Shape"></path>
                </g>
            </g>
        </g>
    </g>
</svg>