<?xml version="1.0" encoding="UTF-8"?>
<svg width="459px" height="1181px" viewBox="0 0 459 1181" version="1.1" xmlns="http://www.w3.org/2000/svg" xmlns:xlink="http://www.w3.org/1999/xlink">
    <title>remote-work-woman</title>
    <g id="NextStep-style-guide" stroke="none" stroke-width="1" fill="none" fill-rule="evenodd">
        <g id="NextStep-Landing-page-idea" transform="translate(-846.000000, -1265.000000)">
            <g id="remote-work-woman" transform="translate(847.000000, 1265.000000)">
                <polygon id="Path" fill="#F77F89" points="109 1074 161 1074 161 1125 109 1125"></polygon>
                <polygon id="Path" fill="#F77F89" points="307 1073 359 1073 359 1124 307 1124"></polygon>
                <path d="M17.354806,73.4984419 L52.3586708,66.2052732 C57.3711855,65.143045 62.3047942,68.3076503 63.3975295,73.2860195 L77.8014596,139.668016 C78.3065162,142.041874 77.8389159,144.517972 76.5022004,146.548022 C75.1654849,148.578072 73.0699503,149.99457 70.6796153,150.483856 L35.7113597,157.794727 C30.698845,158.856955 25.7652363,155.69235 24.672501,150.713981 L10.1973524,84.3319837 C9.69283481,81.9509068 10.164761,79.4681048 11.5084528,77.4342891 C12.8521446,75.4004733 14.9565198,73.9837784 17.354806,73.4984419 Z" id="Path" fill="#0C7AED"></path>
                <path d="M28.3071091,180.582938 C24.0470884,173.777094 -8.04389394,110.534277 1.90202214,105.167789 C11.8479382,99.8013006 17.3930065,105.398796 19.8222745,111.20953 C25.1032919,105.540955 35.9997911,98.7706506 40.5062592,103.710663 C45.7872766,109.379238 41.4040322,118.44185 37.4432692,121.978046 C41.9673407,120.378761 46.1393444,119.43696 49.7656431,124.554671 C54.395335,130.916269 48.4453887,149.130343 45.2767783,151.866896 L62,167.859741 C62,167.859741 32.5495264,187.317703 28.3071091,180.582938 Z" id="Path" fill="#B9878B"></path>
                <path d="M316,571 C316,543.381967 343.530174,521 377.508858,521 C411.487541,521 439,543.381967 439,571 C439,598.618033 411.469826,621 377.508858,621 C343.54789,621 316,598.618033 316,571 Z" id="Path" fill="#A0A8B2"></path>
                <path d="M262.857048,0 C310.343517,0 333.917981,43.2537807 336.191931,58.2820964 C338.465881,73.310412 335.534617,104.967692 339.744978,117.648389 C351.434501,152.151268 394,170.807721 394,205.719655 C394,286.499074 305.173834,263.111814 278.152914,262.080285 C251.131994,261.048755 180,258.772277 180,210.308182 C180,191.029254 193.092977,191.029254 193.323925,165.952419 C193.519343,144.752713 181.687697,138.759171 181.687697,87.9652429 C181.812054,67.1923758 209.969949,-0.248302218 262.857048,0 Z" id="Path" fill="#000000" fill-rule="nonzero"></path>
                <path d="M195.743481,419.527209 C194.463178,405.737773 186.141209,266.706143 228,209.84249 C226.609648,205.238386 225.581095,200.532838 224.923717,195.768736 C209.577864,206.821609 152.195401,265.071313 144.904788,274.755903 C138.272107,266.332975 66.8063127,166.252947 63.2499158,165.062364 C59.693519,163.871781 24.7697019,180.077922 24.0050765,183.791829 C23.2404512,187.505737 109.074089,352.907886 130.696982,359.873683 C139.765794,362.787945 152.568823,353.84969 156.569769,352.552488 C157.121011,361.437434 77.0487356,594.223011 153.475704,596 C198.908674,539.367356 197.006001,433.245565 195.743481,419.527209 Z" id="Path" fill="#DEE3E9"></path>
                <polygon id="Path" fill="#0C7AED" points="178.008678 462 72 1080.40018 165.659013 1080.00946 235.221117 784.200348 270.019888 1085 359.851745 1083.84561 366 462.781436"></polygon>
                <path d="M317.783764,477.278962 C308.031461,479.361536 185.479296,476.869567 174.288129,470.621847 C163.096961,464.374126 165.40625,444.135783 192.993366,437.30067 C183.223299,434.862101 162.47523,422.936252 190.453148,418.753305 C195.444764,368.646942 173.77298,185.220272 259.944969,182.016313 C320.856894,173.027427 331,226.622546 331,226.622546 C331,226.622546 327.536067,475.196389 317.783764,477.278962 Z" id="Path" fill="#FFFFFF"></path>
                <path d="M259.168445,23 C226.490158,23 200,53.6898375 200,91.5353366 C200,129.380836 226.490158,160 259.168445,160 C272.983067,159.784485 286.18643,154.287788 296.048986,144.646247 C294.825545,127.472659 294.665965,110.034047 297.32562,100.917204 C301.439219,89.6094919 299.949812,94.3445963 295.729827,93.8498839 L299.435612,90.7049265 C299.435612,82.8425329 300.747708,88.2136962 308.638017,88.2136962 L318,87.8249936 C316.386476,51.7463245 290.729677,23 259.168445,23 Z" id="Path" fill="#B9878B"></path>
                <path d="M191.821768,79.846378 C204.550197,76.5199833 214.515451,70.4156953 225.49684,51.0058285 C238.581807,62.9490008 249.705812,63.1790175 269.137167,59.3925895 C267.996243,68.8232723 267.069243,79.4925062 279.565921,80.7664446 C292.0626,82.040383 329,98 329,98 L327.217307,56.1723564 L294.611851,19.9004996 L256.533527,13 L222.965416,28.6234388 L202.000946,55.6238551 C202.000946,55.6238551 179.164647,83.0843047 191.821768,79.846378 Z" id="Path" fill="#000000" fill-rule="nonzero"></path>
                <path d="M276,85.9999232 C276,71.6475168 287.629757,60.0098501 301.98217,60 C316.334583,59.9901624 327.980257,71.6118652 328,85.9642581 C328.019693,100.316651 316.405997,111.970309 302.053611,112 C295.147249,112.018903 288.5175,109.287446 283.628919,104.408927 C278.740339,99.5304088 275.99523,92.9063051 276,85.9999232 Z" id="Path" fill="#B9878B"></path>
                <path d="M250.52853,151.196201 C253.057059,163.461607 250.994783,179.351289 248,190.688309 C256.840887,195.723017 292.2403,197.454814 303,189.742069 C298.893381,174.798627 292.634822,120.113126 298.211933,101.027654 C284.170525,99.8136113 248,138.912941 250.52853,151.196201 Z" id="Path" fill="#B9878B"></path>
                <path d="M318.512556,525.906159 C314.666383,532.273195 310.488873,538.431683 305.997447,544.355939 C305.997447,544.355939 294.251123,540.615633 291.032952,544.949353 C287.814781,549.283073 266.34243,576.598098 276.890879,585.894917 C287.439328,595.191736 299.275045,571.976662 302.600488,568.955645 C313.550014,578.987514 323.873732,589.689295 333.512808,601 C333.512808,601 333.423414,584.654142 335.211287,578.899825 C336.999159,573.145508 348.012455,557.788673 351.695473,553.724687 C355.378491,549.6607 324.555565,515.692246 318.512556,525.906159 Z" id="Path" fill="#B9878B"></path>
                <path d="M306.459275,191 C300.89994,205.026654 294.257156,218.733714 277.046307,228.78319 C276.069427,244.496594 290.740388,459.885634 302.906984,482.186239 C307.829769,490.926771 313.94504,498.940181 321.076951,505.99604 C317.329285,516.045516 313.97237,525.153964 315.357763,528.065826 C317.133909,531.865452 347.985554,558.249766 352.159496,557.095674 C354.89476,556.349953 362.656515,548.324576 369.19273,541.115941 C399.387202,558.516095 427.254923,570.909265 427.805528,587.155327 C427.805528,598.767266 423.898008,602.407094 419.120177,608 C426.011621,604.59099 442.547535,587.173082 442.902764,565.742485 C443.3468,538.718982 417.290747,491.454484 412.708292,479.469684 C421.216029,469.810823 450.984226,428.884953 458,392.912799 C439.989886,322.974836 368.855263,192.935323 306.459275,191 Z" id="Path" fill="#DEE3E9"></path>
                <path d="M327.941274,318 C333.990378,327.729145 376,391.849009 376,391.849009 C376,391.849009 336.628069,473.541808 323,502" id="Path" stroke="#17385A" stroke-width="2" stroke-linecap="round" stroke-linejoin="round"></path>
                <path d="M437.789377,435 C422.319341,427.492448 412.949853,411.379315 414.094127,394.250204 C415.238401,377.121093 426.668253,362.391755 443,357" id="Path" stroke="#17385A" stroke-width="2" stroke-linecap="round" stroke-linejoin="round"></path>
                <line x1="391" y1="378" x2="376" y2="393" id="Path" stroke="#17385A" stroke-width="2" stroke-linecap="round" stroke-linejoin="round"></line>
                <line x1="395" y1="401" x2="377" y2="391" id="Path" stroke="#17385A" stroke-width="2" stroke-linecap="round" stroke-linejoin="round"></line>
                <path d="M324,511 C328.198095,515.825999 354.761905,534.892349 362,538" id="Path" stroke="#17385A" stroke-width="2" stroke-linecap="round" stroke-linejoin="round"></path>
                <path d="M107,333.714923 C115.045984,325.370629 127.368246,322.732265 138.141578,327.047087 C148.91491,331.361908 155.981224,341.765581 156,353.339888 L156,354" id="Path" stroke="#17385A" stroke-width="2" stroke-linecap="round" stroke-linejoin="round"></path>
                <line x1="146" y1="275" x2="131" y2="297" id="Path" stroke="#17385A" stroke-width="2" stroke-linecap="round" stroke-linejoin="round"></line>
                <line x1="158" y1="292" x2="146" y2="275" id="Path" stroke="#17385A" stroke-width="2" stroke-linecap="round" stroke-linejoin="round"></line>
                <line x1="75" y1="178" x2="34" y2="204" id="Path" stroke="#17385A" stroke-width="2" stroke-linecap="round" stroke-linejoin="round"></line>
                <path d="M234,785 C231.715787,767.615573 223.023089,618.797042 229.146048,567" id="Path" stroke="#17385A" stroke-width="2" stroke-linecap="round" stroke-linejoin="round"></path>
                <polyline id="Path" stroke="#737999" stroke-width="2" stroke-linecap="round" stroke-linejoin="round" points="335.046441 824 362 813.195388 333 795"></polyline>
                <polyline id="Path" stroke="#737999" stroke-width="2" stroke-linecap="round" stroke-linejoin="round" points="196 829 225 824.81008 206.132962 805"></polyline>
                <path d="M170,501 C178.869048,502.191508 264.011905,506.834883 319,504.206557" id="Path" stroke="#17385A" stroke-width="2" stroke-linecap="round" stroke-linejoin="round"></path>
                <line x1="77" y1="1045" x2="174" y2="1043" id="Path" stroke="#737999" stroke-width="2" stroke-linecap="round" stroke-linejoin="round"></line>
                <line x1="265" y1="1051" x2="360" y2="1049" id="Path" stroke="#737999" stroke-width="2" stroke-linecap="round" stroke-linejoin="round"></line>
                <line x1="302" y1="569" x2="341" y2="609" id="Path" stroke="#17385A" stroke-width="2" stroke-linecap="round" stroke-linejoin="round"></line>
                <line x1="280" y1="545" x2="287" y2="552" id="Path" stroke="#17385A" stroke-width="2" stroke-linecap="round" stroke-linejoin="round"></line>
                <line x1="298" y1="1084" x2="270" y2="504" id="Path" stroke="#17385A" stroke-width="2" stroke-linecap="round" stroke-linejoin="round"></line>
                <line x1="229" y1="688" x2="134" y2="1081" id="Path" stroke="#737999" stroke-width="2" stroke-linecap="round" stroke-linejoin="round"></line>
                <path d="M248,91.0084151 C248,87.6423562 249.333333,85 250.99187,85 C252.650407,85 254,87.6928471 254,91.0084151 C254,94.3239832 252.650407,97 250.99187,97 C249.333333,97 248,94.3071529 248,91.0084151 Z" id="Path" fill="#4A2F32"></path>
                <path d="M211,91.0084151 C211,87.6423562 212.349593,85 214.00813,85 C215.666667,85 217,87.6928471 217,91.0084151 C217,94.3239832 215.666667,97 214.00813,97 C212.349593,97 211,94.3071529 211,91.0084151 Z" id="Path" fill="#4A2F32"></path>
                <path d="M229.853523,92 C230.460213,96.9812287 229.246833,108.12628 225,113" id="Path" stroke="#8B5B5F" stroke-width="2" stroke-linecap="round" stroke-linejoin="round"></path>
                <path d="M253.743189,124 C253.913076,124.658908 253.999285,125.335914 253.999852,126.015598 C254.016009,128.641186 252.70826,131.104682 250.506722,132.595846 C248.305185,134.087011 245.494837,134.41282 243,133.466114" id="Path" stroke="#8B5B5F" stroke-width="2" stroke-linecap="round" stroke-linejoin="round"></path>
                <path d="M252,159.247967 C254.730486,159.745537 257.49167,159.997007 260.257444,160 C267.404905,159.989124 274.470997,158.28584 281,155" id="Path" stroke="#8B5B5F" stroke-width="2" stroke-linecap="round" stroke-linejoin="round"></path>
                <path d="M285,82.3991749 C286.352191,73.4556376 294.308659,67.1651406 303.098574,68.0901837 C311.888489,69.0152269 318.429736,76.8314511 317.977946,85.8697458 C317.526157,94.9080405 310.239747,101.999198 301.403552,102 C299.816224,101.993583 298.237373,101.762572 296.711784,101.313519" id="Path" stroke="#8B5B5F" stroke-width="2" stroke-linecap="round" stroke-linejoin="round"></path>
                <line x1="409" y1="483" x2="373" y2="536" id="Path" stroke="#17385A" stroke-width="2" stroke-linecap="round" stroke-linejoin="round"></line>
                <path d="M307.43654,1104.44389 L360,1104 L359.48502,1179 L197,1177.97017 C197.621527,1162.54048 227.508116,1135.12571 263.94738,1129.69247 C300.386643,1124.25923 307.43654,1109.34446 307.43654,1104.44389 Z" id="Path" fill="#9B9B9B"></path>
                <path d="M226,1144 C232.564264,1149.51069 238.28874,1155.90863 243,1163" id="Path" stroke="#4E4242" stroke-width="2" stroke-linecap="round" stroke-linejoin="round"></path>
                <path d="M251,1134 C257.573582,1139.50151 263.299305,1145.90085 268,1153" id="Path" stroke="#4E4242" stroke-width="2" stroke-linecap="round" stroke-linejoin="round"></path>
                <path d="M264.010133,1133 C217.061283,1082.32613 306.748649,1069.37191 264.173465,1133" id="Path" stroke="#4E4242" stroke-width="2" stroke-linecap="round" stroke-linejoin="round"></path>
                <path d="M265,1131.82711 C313.184199,1074.71291 340.660707,1169.33729 265,1132.00214" id="Path" stroke="#4E4242" stroke-width="2" stroke-linecap="round" stroke-linejoin="round"></path>
                <line x1="360" y1="1117.5" x2="299" y2="1117.5" id="Path" stroke="#4E4242" stroke-width="2" stroke-linecap="round" stroke-linejoin="round"></line>
                <line x1="360" y1="1178.73" x2="198" y2="1178.27" id="Path" stroke="#4E4242" stroke-width="2" stroke-linecap="round" stroke-linejoin="round"></line>
                <path d="M110.448573,1105.44389 L163,1105 L162.484964,1180 L0,1179.02344 C0.621595119,1163.59375 30.5114404,1136.17898 66.9546742,1130.74574 C103.397908,1125.3125 110.448573,1110.34446 110.448573,1105.44389 Z" id="Path" fill="#9B9B9B"></path>
                <path d="M29,1145 C35.5642642,1150.51069 41.2887401,1156.90863 46,1164" id="Path" stroke="#4E4242" stroke-width="2" stroke-linecap="round" stroke-linejoin="round"></path>
                <path d="M53,1135 C59.5730593,1140.50203 65.2987121,1146.90129 70,1154" id="Path" stroke="#4E4242" stroke-width="2" stroke-linecap="round" stroke-linejoin="round"></path>
                <path d="M67.0101329,1134 C20.0612831,1083.32829 109.748649,1070.36998 67.1734648,1134" id="Path" stroke="#4E4242" stroke-width="2" stroke-linecap="round" stroke-linejoin="round"></path>
                <path d="M67,1132.83039 C115.19154,1075.71094 142.654786,1170.33253 67,1133.00539" id="Path" stroke="#4E4242" stroke-width="2" stroke-linecap="round" stroke-linejoin="round"></path>
                <line x1="163" y1="1118.5" x2="102" y2="1118.5" id="Path" stroke="#4E4242" stroke-width="2" stroke-linecap="round" stroke-linejoin="round"></line>
                <line x1="162" y1="1179.715" x2="0" y2="1179.285" id="Path" stroke="#4E4242" stroke-width="2" stroke-linecap="round" stroke-linejoin="round"></line>
                <path d="M9.95877612,143 C7.70340416,137.377535 8.69644107,116.072283 21,109" id="Path" stroke="#8B5B5F" stroke-width="2" stroke-linecap="round" stroke-linejoin="round"></path>
                <path d="M27.3246276,151 C25.7807466,143.977893 29.8098995,129.213914 38,124" id="Path" stroke="#8B5B5F" stroke-width="2" stroke-linecap="round" stroke-linejoin="round"></path>
                <path d="M277,228 C288.478795,219.605769 301.508297,203.509615 306,192" id="Path" stroke="#17385A" stroke-width="2" stroke-linecap="round" stroke-linejoin="round"></path>
                <path d="M200,439 C233.893109,446.546125 274.263409,443.907749 294,441.638376" id="Path" stroke="#17385A" stroke-width="2" stroke-linecap="round" stroke-linejoin="round"></path>
            </g>
        </g>
    </g>
</svg>