<?xml version="1.0" encoding="UTF-8"?>
<svg width="137px" height="108px" viewBox="0 0 137 108" version="1.1" xmlns="http://www.w3.org/2000/svg" xmlns:xlink="http://www.w3.org/1999/xlink">
    <title>step-by-step</title>
    <g id="NextStep-style-guide" stroke="none" stroke-width="1" fill="none" fill-rule="evenodd">
        <g id="NextStep-Landing-page-idea" transform="translate(-228.000000, -1861.000000)">
            <g id="step-by-step" transform="translate(228.000000, 1861.000000)">
                <circle id="Oval" fill="#E0EFFF" opacity="0.623374" cx="83" cy="54" r="54"></circle>
                <g id="negotiating" transform="translate(0.000000, 12.000000)" fill="#000000" fill-rule="nonzero">
                    <path d="M61.4105505,0.517341687 C44.9562982,0.517341687 31.451346,11.881631 30.406847,26.1960584 C14.7365045,26.9834772 0,38.3027098 0,53.6126748 C0,60.0107195 2.52735943,66.2099431 7.12801032,71.1218334 C8.03828813,74.8808457 6.93310383,78.8651412 4.19084751,81.6121669 C3.6682408,82.1356821 3.51188734,82.9231009 3.79460891,83.6075329 C4.07733047,84.2912497 4.74343956,84.7375252 5.48308486,84.7375252 C10.6955852,84.7375252 15.7188905,82.6899505 19.4513863,79.0818423 C23.0874997,80.3234035 27.8316533,81.0757781 32.1674312,81.0757781 C48.6195416,81.0757781 62.123066,69.7143493 63.1704207,55.4027828 C66.9971571,55.2325687 70.9773912,54.5245357 74.1265954,53.4496126 C77.8590911,57.0577208 82.8823965,59.1052954 88.0948968,59.1052954 C88.8345421,59.1052954 89.5006512,58.65902 89.7833727,57.9753031 C90.0660943,57.2908712 89.9097409,56.5034524 89.3871341,55.9799371 C86.6448778,53.2329115 85.5396935,49.2486159 86.4499713,45.4896036 C91.0506222,40.5777134 93.5779817,34.3784898 93.5779817,27.980445 C93.5779817,12.0725854 77.7063072,0.517341687 61.4105505,0.517341687 Z M32.1674312,77.414031 C27.8537856,77.414031 22.9382856,76.5658217 19.6455789,75.2534572 C18.9402029,74.9716742 18.1341609,75.1569072 17.6208356,75.7183273 C15.4140368,78.1349374 12.5446985,79.8199132 9.41834056,80.5944586 C11.1410858,77.2881584 11.5808749,73.3904003 10.5328061,69.6971849 C10.4499886,69.4061048 10.296491,69.1400559 10.0858776,68.9233549 C5.9392947,64.6451182 3.65538991,59.2075669 3.65538991,53.6126748 C3.65538991,40.7107377 16.7119857,29.8113186 32.1674312,29.8113186 C46.7618609,29.8113186 59.5828555,39.9776731 59.5828555,53.6126748 C59.5828555,66.7370344 47.2844676,77.414031 32.1674312,77.414031 Z M83.492104,43.2911251 C83.2814907,43.5085413 83.127993,43.7745901 83.0451756,44.0649552 C81.9971068,47.7581706 82.4368959,51.6559286 84.1596411,54.9622289 C81.0332832,54.1883986 78.1639448,52.5027077 75.9571461,50.0860976 C75.4438208,49.5253925 74.6377788,49.3394444 73.9324028,49.6212274 C71.0787713,50.7583714 67.0078663,51.5457902 63.1647092,51.7360294 C62.6306796,44.8123236 59.1830472,38.3048554 53.288731,33.4730657 L77.1287271,33.4730657 C78.138243,33.4730657 78.956422,32.6534638 78.956422,31.6421921 C78.956422,30.6309204 78.138243,29.8113186 77.1287271,29.8113186 L47.6735667,29.8113186 C43.5248419,27.6958013 38.8663616,26.4621072 34.0715181,26.2032104 C35.1217286,13.9063197 46.9824695,4.1790888 61.4105505,4.1790888 C76.8659959,4.1790888 89.9225917,15.0785079 89.9225917,27.980445 C89.9225917,33.5753372 87.6386869,39.0128884 83.492104,43.2911251 Z" id="Shape"></path>
                    <path d="M39.3796657,47.3063325 L16.7671233,47.3063325 C15.7758616,47.3063325 14.9724771,48.0045119 14.9724771,48.8659655 C14.9724771,49.7274192 15.7758616,50.4255986 16.7671233,50.4255986 L39.3796657,50.4255986 C40.3709274,50.4255986 41.1743119,49.7274192 41.1743119,48.8659655 C41.1743119,48.0045119 40.3709274,47.3063325 39.3796657,47.3063325 Z" id="Path"></path>
                    <path d="M46.259051,57.9118371 L16.7501233,57.9118371 C15.7682514,57.9118371 14.9724771,58.6100165 14.9724771,59.4714701 C14.9724771,60.3329238 15.7682514,61.0311032 16.7501233,61.0311032 L46.259051,61.0311032 C47.2409229,61.0311032 48.0366972,60.3329238 48.0366972,59.4714701 C48.0366972,58.6100165 47.2409229,57.9118371 46.259051,57.9118371 Z" id="Path"></path>
                    <path d="M69.948473,19.232938 L47.3359306,19.232938 C46.3446689,19.232938 45.5412844,19.9311174 45.5412844,20.792571 C45.5412844,21.6540247 46.3446689,22.3522041 47.3359306,22.3522041 L69.948473,22.3522041 C70.9397348,22.3522041 71.7431193,21.6540247 71.7431193,20.792571 C71.7431193,19.9311174 70.9397348,19.232938 69.948473,19.232938 Z" id="Path"></path>
                </g>
            </g>
        </g>
    </g>
</svg>