<?xml version="1.0" encoding="UTF-8"?>
<svg width="128px" height="107px" viewBox="0 0 128 107" version="1.1" xmlns="http://www.w3.org/2000/svg" xmlns:xlink="http://www.w3.org/1999/xlink">
    <title>find-jobs</title>
    <g id="NextStep-style-guide" stroke="none" stroke-width="1" fill="none" fill-rule="evenodd">
        <g id="NextStep-Landing-page-idea" transform="translate(-655.000000, -1862.000000)">
            <g id="find-jobs" transform="translate(655.000000, 1862.000000)">
                <g id="Group-16" transform="translate(21.000000, 0.000000)" fill="#E0EFFF" opacity="0.623374">
                    <circle id="Oval" cx="53.5" cy="53.5" r="53.5"></circle>
                </g>
                <g id="Group-13" transform="translate(0.000000, 12.000000)" fill="#000000" fill-rule="nonzero">
                    <g id="Group-4">
                        <g id="magnifying-glass">
                            <path d="M84.2648037,80.6651885 L63.6039033,60.0088692 C69.1461521,53.6385809 72.5016633,45.327051 72.5016633,36.2427938 C72.5016633,16.2461197 56.2330894,0 36.2508317,0 C16.2497228,0 0,16.2649667 0,36.2427938 C0,56.2206208 16.268574,72.4855876 36.2508317,72.4855876 C45.3371036,72.4855876 53.6504768,69.1308204 60.0221779,63.5898004 L80.6830783,84.2461197 C81.1732091,84.7361419 81.8330007,85 82.473941,85 C83.1148813,85 83.7746729,84.7549889 84.2648037,84.2461197 C85.2450654,83.2660754 85.2450654,81.6452328 84.2648037,80.6651885 Z M5.07096917,36.2427938 C5.07096917,19.0543237 19.0585496,5.0886918 36.2319805,5.0886918 C53.4242626,5.0886918 67.3929918,19.0731707 67.3929918,36.2427938 C67.3929918,53.4124169 53.4242626,67.4157428 36.2319805,67.4157428 C19.0585496,67.4157428 5.07096917,53.4312639 5.07096917,36.2427938 Z" id="Shape"></path>
                        </g>
                    </g>
                </g>
            </g>
        </g>
    </g>
</svg>